<?xml version="1.0" encoding="utf-8"?>
<!-- Generator: Adobe Illustrator 26.0.1, SVG Export Plug-In . SVG Version: 6.00 Build 0)  -->
<svg version="1.1" id="Слой_1" xmlns="http://www.w3.org/2000/svg" xmlns:xlink="http://www.w3.org/1999/xlink" x="0px" y="0px"
	 viewBox="0 0 1000 1000" style="enable-background:new 0 0 1000 1000;" xml:space="preserve">
<g>
	<path d="M701.4,145.7c3.8-2.6,7.5-5.2,11.3-7.9c5.4-3.7,11.1-4.5,17.2-1.9c2,0.9,4,2,6.1,2.5c4.1,1,5.7,3.5,6.7,7.5
		c1.2,4.3,3.6,8.4,5.8,12.4c2.3,4,2.4,6.3-0.2,8.2c-2.7,2-5.8,1.9-8.3-1.4c-2.6-3.4-5.2-7.3-6.1-11.4c-1.4-5.7-6.1-6.5-9.9-8.6
		c-0.8-0.4-2.4,0.2-3.3,0.8c-6.4,4.4-12.7,9-19,13.6c-0.6,0.5-0.8,1.6-1.1,2.4c0.7,0.1,1.4,0.3,2,0.4c6.5,0.9,13,1.6,19.4,2.6
		c3.7,0.5,5.9,2.3,6.5,6.5c0.4,2.9,2.6,5.6,4.1,8.3c1.1,1.9,3.1,3.7,3.2,5.6c0.1,1.8-1.2,4.5-2.7,5.4c-1.4,0.8-4.7,0.5-5.8-0.7
		c-3.1-3.3-5.9-7.1-8-11.1c-1.7-3.2-3.8-4.8-7.3-4.8c-4.4,0-8.8-0.1-13.1,0c-3.3,0.1-6,1.2-7.3,4.8c-6.7,17.5-16.7,33.3-26.8,49
		c-1.2,1.9-2.3,4.3-2.2,6.5c0.2,17.1-1.6,33.9-4.3,50.7c-3.6,22.2-7.5,44.4-13.8,65.9c-8.3,28.3-21.5,54.3-39.4,78
		c-13.8,18.2-29.9,34.3-46.1,50.4c-14.3,14.2-23.6,31.1-28.6,50.6c-6.5,25.8-5.5,51.5,0.9,77c1.9,7.5,4.7,14.7,9,21.3
		c5.7,8.6,8.8,18.6,9.1,28.8c0.4,13.7-4.8,24.4-18.4,30c-11.8,4.9-23.6,9.9-35.2,15.4c-7.9,3.7-15.3,8.3-21.3,14.9
		c-4.9,5.3-4.9,8.1-1.3,14.2c3.6,5.9,5.5,12.5,4.9,19.4c-1,10.5-4,20.4-10,29.2c-0.5,0.7-1.4,1.2-2.1,1.8c0-1-0.2-2.1-0.1-3.1
		c1-8.6,3.4-17.1,0.8-26c-1.5-5.1-3.7-9.5-7.9-12.6c-13.9-10.2-13.7-21.2-2-33.5c7.8-8.2,16.8-14.5,26.2-20.6
		c8.5-5.5,17.3-10.8,22.7-20c3.1-5.2,3.4-10.3,1.2-16c-7.7-19.9-16.7-39.2-27.2-57.8c-11.3-19.9-24.5-38.2-39.7-55.3
		c-12.7-14.3-28.4-25-42.3-37.8c-14-12.8-27.2-26.3-36.8-42.8c-10.6-18.2-13.4-38.2-14-58.8c-0.2-6.3,0.1-12.7-0.2-19
		c-0.7-17.7-1.6-35.4-2.5-53.2c-0.6-11.4-0.9-22.9-1.9-34.2c-2.1-22.5-4.6-44.9-6.8-67.3c-0.3-3.3-1.7-5.2-4.5-6.8
		c-10.5-6-20.1-13.4-29.1-21.5c-3.9-3.5-7.9-5.1-13.2-3.5c-4.6,1.5-9.4,2.8-14.1,3.1c-5.2,0.4-10.7,0.2-15.8-0.9
		c-7.8-1.7-7.9-2.2-8.3,5.6c-0.1,2.9-1.1,4.6-3.8,5.3c-3.2,0.9-6.3-0.7-6.3-4c0.1-5.3,0.5-10.7,1.6-15.8c0.8-3.9,5.2-5.7,9.2-4.7
		c0.5,0.1,0.9,0.3,1.4,0.4c9.9,3.4,19.8,6.2,29.8,0.2c-7.3-2.4-14.8-4.9-22.3-7.4c-0.7-0.2-1.5-0.1-2.1-0.5
		c-5.3-2.8-10.2-1.8-15.8,0c-6,1.9-9.4,5.5-12.3,10.4c-2.1,3.4-5.8,4.6-8.5,2.9c-2.4-1.5-2.9-4.6-0.8-8.3c4.1-7.3,9.2-12.9,18-15.7
		c8.5-2.7,15.9-3.6,24.2,0.4c6.3,3,13.3,4.3,20,6.3c0.6,0.2,1.4-0.2,2.1-0.3c-0.3-0.6-0.4-1.4-0.8-1.8c-7.2-5.7-14.4-11.5-21.9-16.9
		c-1.5-1.1-4.1-0.9-6.1-0.7c-4.5,0.5-9.1,1.2-13.6,2.2c-2,0.4-3.8,1.6-5.6,2.7c-0.8,0.5-1.2,1.6-2,2.1c-2.5,1.6-5.1,1.8-7.3-0.4
		c-1.9-1.9-2.4-4.2-0.7-6.6c2.8-4.1,6.2-7.4,11.4-8.2c6-0.8,12-1.8,18-2.8c5.1-0.9,9.5,0.4,13.6,3.7c5.6,4.6,11.6,8.8,17.3,13.4
		c5.5,4.3,10.9,8.8,17.7,14.3c-2.5-8.3-4.7-15-6.7-21.8c-0.9-3-2.7-4.4-5.9-3.7c-2.1,0.4-4.3,0.9-6.5,0.8c-2.8-0.1-5.3-1.1-5.8-4.4
		c-0.6-3.4,1.5-4.9,4.4-5.6c3.8-0.8,7.6-2.2,11.4-2.1c7.3,0.2,11.3,5.4,13.1,11.8c2.6,9.3,5.6,18.7,6.5,28.3
		c0.8,8.1,6.8,10.6,11.4,14.9c0.3,0.3,1,0.5,1.4,0.3c8.6-3,15.4,3.2,23.2,4.6c10.2,1.8,20.3,4.7,30.5,6.6c10.7,2,19.1-3,25.6-10.8
		c7.5-8.9,14-18.5,21.1-27.7c4.6-5.9,9.2-11.9,14.3-17.4c17.2-18.7,38.1-22.2,61.8-14.7c20.4,6.5,35.2,20,46.8,37.3
		c5.9,8.9,11.6,17.9,16.8,27.2c10.9,19.4,23.2,21.7,41.3,18.9c8.1-1.3,15.9-4,23.9-5.9c5.6-1.3,11.2-3.2,17.2-1.6
		c1.3,0.4,4-0.8,4.7-2c5.9-9.7,11.7-19.5,17.2-29.4c2.8-5.1,0.2-10-2.4-14.4c-2.3-4-5.3-7.5-8-11.2c-4.3-6-4.2-10.5,1.1-15.4
		c3.2-3,6.7-5.7,10.5-7.8c8.3-4.6,14.1,0.6,14.5,9.4c0.1,1.7-1.6,4.2-3.2,5.1c-1.2,0.7-3.5-0.3-5.3-0.8c-1.2-0.4-2.5-2.2-3.2-2
		c-1.7,0.7-3.2,2.2-4.5,3.5c-0.4,0.4-0.2,1.7,0.2,2.2c2.3,3.7,4.8,7.3,7.3,10.8c0.3,0.4,2.3,0.3,2.6-0.2c5.8-9.3,11.5-18.5,16.9-28
		c1.5-2.6,1.8-6,2.3-9.1c0.7-3.8,2.7-6,6.6-6.6c5.2-0.8,10.4-2.2,15.7-2.7c2.2-0.2,4.8,0.8,6.9,1.8c2.7,1.3,3.9,3.8,2.7,6.7
		c-1.2,2.9-3.9,4.3-6.5,3.1c-4-1.9-7.5-0.1-11.2,0.5c-2.4,0.4-3.9,1.6-4.3,4.1c-1.3,7.6-6,13.6-9.9,20c-0.3,0.6-0.5,1.2-0.8,1.9
		C700.8,145.2,701.1,145.4,701.4,145.7z M558.3,249.8c0.4-0.8,0.1-1.8-0.7-2.4c-0.6-0.4-1.2-0.8-1.6-0.7c-1.7,0.6-3.5,1.5-4.8,2.7
		c-4.5,4.1-8.7,8.5-13.1,12.6c-2.6,2.5-5.4,6.5-8.3,6.6c-3.1,0.1-6.5-3.3-9.5-5.5c-8.8-6.3-8.8-6.3-12.8,3.7c-2.8,7-2.8,7-7.9,1.9
		c-0.7-0.7-1.5-1.2-2.2-1.9c-2-2.4-3.9-2.2-6,0c-2.3,2.4-4.9,4.7-7.3,7.1c-6.3,6.2-5.4,4.9-9.2-0.4c-1.3-1.8-2.6-3.5-4-5.2
		c-3.2-4-4.4-4.2-8.1-0.8c-0.9,0.8-1.7,1.7-2.6,2.6c-6.1,6-6.4,6.1-8.9-2.4c-2.1-7.2-2-9.5-8.7-4.4c-0.6,0.4-3,2.2-3.6,2.6
		c-3.2,2.4-5,2.3-9.7-3c-4-4.6-8.5-9.5-13.1-14.6c-1.5-1.7-3.2-5.4-6.6-3.3c-2.9,1.8-0.9,4.4-0.2,6.6c2.5,7.8,5,15.6,7.6,23.4
		c1.8,5.3,3.8,10.4,5.4,15.7c1.1,3.4,2.8,4.2,5.9,2.7c2.6-1.2,5.4-2.1,8-3.4c2.5-1.3,3.9-0.7,5.1,1.9c2,4.1,4.2,8.2,6.5,12.1
		c1.6,2.7,3.9,3.5,6.6,1.1c1.1-1,2.1-2,3.1-3c7.2-7.3,7.2-7.3,14.7-0.2c2.6,2.5,5.4,6.8,8,6.8c3,0,6.2-3.8,9-6.2
		c7-5.8,6.9-5.9,13.6,0.5c5.4,5.2,6.2,5.1,10.2-1.1c1.7-2.6,3.2-6.6,5.5-7.3c2-0.6,5.2,2.6,7.7,4.4c2.5,1.9,4.3,1.7,5.8-1.1
		c2.2-4,4.4-8.1,6.6-12.1c6.1-11.3,12.1-22.6,18.2-33.9C557.6,251.3,557.9,250.6,558.3,249.8z M476.7,202.3c2-9.7-6.5-16.5-13-22
		c-4.8-4-10.3-6.4-16.7-6c-1.8,0.1-4.2,0.9-5,2.2c-1.3,2.3,1,3.8,2.6,5.3c6.1,5.3,11.2,11.4,14.2,19c0.9,2.2,2.3,4.4,4,6
		c2.7,2.6,6.4,3.3,9.4,1.3C474.4,206.8,476.3,204.2,476.7,202.3z M502,209c3-0.1,5.7-2.4,7.5-6.3c3.6-7.7,7.6-15.1,14.5-20.6
		c1.5-1.2,3.8-3.1,3.3-5.1c-0.6-2-3.7-2.2-5.7-2.6c-1.8-0.3-3.8,0.2-5.7,0.7c-12.1,3.1-18.1,12.5-22.6,22.9
		C490.6,204.2,494.4,209,502,209z"/>
</g>
</svg>
